<?xml version="1.0" standalone="no"?><!DOCTYPE svg PUBLIC "-//W3C//DTD SVG 1.1//EN" "http://www.w3.org/Graphics/SVG/1.1/DTD/svg11.dtd"><svg t="1591692119569" class="icon" viewBox="0 0 1024 1024" version="1.1" xmlns="http://www.w3.org/2000/svg" p-id="1846" xmlns:xlink="http://www.w3.org/1999/xlink" width="200" height="200"><defs><style type="text/css"></style></defs><path d="M51.2 563.3536m51.2 0l307.2 0q51.2 0 51.2 51.2l0 307.2q0 51.2-51.2 51.2l-307.2 0q-51.2 0-51.2-51.2l0-307.2q0-51.2 51.2-51.2Z" p-id="1847"></path><path d="M563.2 563.3536m51.2 0l307.2 0q51.2 0 51.2 51.2l0 307.2q0 51.2-51.2 51.2l-307.2 0q-51.2 0-51.2-51.2l0-307.2q0-51.2 51.2-51.2Z" p-id="1848"></path><path d="M51.2 51.3536m51.2 0l307.2 0q51.2 0 51.2 51.2l0 307.2q0 51.2-51.2 51.2l-307.2 0q-51.2 0-51.2-51.2l0-307.2q0-51.2 51.2-51.2Z" p-id="1849"></path><path d="M795.51488 62.6176l165.79584 165.80608a39.08608 39.08608 0 0 1 0 55.296L795.51488 449.51552a39.08608 39.08608 0 0 1-55.296 0L574.464 283.66848a39.08608 39.08608 0 0 1 0-55.296L740.2496 62.6176a39.08608 39.08608 0 0 1 55.26528 0z" fill="#EBBA50" p-id="1850"></path></svg>