<?xml version="1.0" standalone="no"?><!DOCTYPE svg PUBLIC "-//W3C//DTD SVG 1.1//EN" "http://www.w3.org/Graphics/SVG/1.1/DTD/svg11.dtd"><svg t="1591752165415" class="icon" viewBox="0 0 1024 1024" version="1.1" xmlns="http://www.w3.org/2000/svg" p-id="1846" xmlns:xlink="http://www.w3.org/1999/xlink" width="200" height="200"><defs><style type="text/css"></style></defs><path d="M153.672294 646.71744h716.8s153.6-34.31424 153.6-174.08a151.25504 151.25504 0 0 0-71.68-133.12s12.05248-319.32416-296.96-337.92c0 0-117.64736-12.12416-235.52 102.4 0 0-165.43744-53.08416-245.76 30.72 0 0-81.80736 57.84576-81.92 184.32a166.01088 166.01088 0 0 0-92.16 153.6s-8.52992 133.12 153.6 174.08z" p-id="1847"></path><path d="M205.660774 708.48512a20.48 20.48 0 0 1 14.47936 25.088l-47.33952 148.71552A20.50048 20.50048 0 0 1 133.192294 871.69024l47.33952-148.71552a20.48 20.48 0 0 1 25.12896-14.4896z m604.75392-2.52928a20.48 20.48 0 0 1 14.47936 25.088l-47.34976 148.71552a20.48 20.48 0 1 1-39.55712-10.60864l47.33952-148.71552a20.48 20.48 0 0 1 25.088-14.47936zM516.168294 693.88288a20.48 20.48 0 0 1 14.47936 25.088l-94.32064 288.58368a20.48 20.48 0 0 1-39.56736-10.5984l94.33088-288.58368a20.48 20.48 0 0 1 25.07776-14.4896z" fill="#EBBA50" p-id="1848"></path></svg>